<?xml version="1.0" encoding="utf-8"?>
<!-- Generator: Adobe Illustrator 23.0.5, SVG Export Plug-In . SVG Version: 6.00 Build 0)  -->
<svg version="1.1" id="Layer_1" xmlns="http://www.w3.org/2000/svg" xmlns:xlink="http://www.w3.org/1999/xlink" x="0px" y="0px"
	 viewBox="0 0 1010 210" style="enable-background:new 0 0 1010 210;" xml:space="preserve">
<style type="text/css">
	.st0{fill:#00A3FE;}
	.st1{fill:#252525;}
	.st2{clip-path:url(#SVGID_2_);}
	.st3{fill:#2EE1FF;}
	.st4{fill:url(#SVGID_3_);}
	.st5{fill:#FFFFFF;}
	.st6{fill:url(#SVGID_4_);}
	.st7{fill:url(#SVGID_5_);}
	.st8{opacity:0.2;fill:#FFFFFF;}
	.st9{opacity:0.4;fill:url(#SVGID_6_);}
</style>
<g>
	<g>
		<path class="st0" d="M992.34,141.4c0-0.01,0-0.02,0-0.04c1.14-1.31,2.18-2.7,3.18-4.13c0.38-0.56,0.74-1.12,1.11-1.68
			c0.36-0.53,0.69-1.07,1-1.6c0.01-0.03,0.03-0.06,0.03-0.07c0-0.01,0.01-0.04,0.03-0.06c0.03-0.03,0.03-0.04,0.04-0.04l0.15-0.28
			c0.14-0.25,0.29-0.5,0.41-0.77c0.18-0.29,0.34-0.6,0.51-0.91l0.07-0.11l0.05-0.14c0-0.01,0.01-0.01,0.01-0.01
			c0.19-0.39,0.38-0.78,0.58-1.18c0.14-0.29,0.27-0.59,0.43-0.9l0.04-0.07c0.03-0.06,0.07-0.1,0.1-0.18l0.23-0.55
			c0.19-0.41,0.37-0.83,0.54-1.25l0.03-0.08l0.05-0.08l0.04-0.14c0.27-0.66,0.52-1.33,0.74-1.99l0.1-0.28
			c0.25-0.66,0.49-1.37,0.73-2.17c0.22-0.7,0.4-1.4,0.59-2.12l0.04-0.21c0-0.01,0-0.03,0.01-0.04c0.22-0.79,0.38-1.59,0.56-2.36
			l0.04-0.21c0.1-0.46,0.18-0.93,0.25-1.4c0.07-0.35,0.12-0.72,0.19-1.08c0-0.1,0.01-0.18,0.04-0.28c0.05-0.36,0.11-0.74,0.15-1.11
			c0.03-0.2,0.05-0.38,0.08-0.57c0.03-0.21,0.05-0.41,0.07-0.62c0.03-0.2,0.05-0.41,0.07-0.62c0.05-0.42,0.1-0.84,0.12-1.26
			c0.03-0.32,0.05-0.65,0.08-0.98c0.11-1.56,0.16-3.16,0.16-4.77c0-0.01,0-0.01,0-0.03c0-10.8-2.47-20.46-7.35-28.86
			c-0.45-0.76-0.92-1.51-1.4-2.26c0,0,0,0,0-0.01c-0.49-0.73-1-1.46-1.52-2.17c-0.25-0.38-0.52-0.74-0.8-1.09
			c-0.55-0.72-1.11-1.4-1.7-2.09c0.01-0.01,0.01-0.01,0-0.01c-0.44-0.52-0.89-1.04-1.34-1.54c-0.47-0.5-0.93-1.01-1.41-1.5
			c-1.69-1.72-3.46-3.31-5.28-4.75c-0.62-0.49-1.23-0.95-1.87-1.4c-8.96-6.45-19.54-9.72-31.54-9.72
			c-12.96,0-24.25,3.81-33.67,11.33c-0.69,0.56-1.37,1.14-2.04,1.72c-0.01,0-0.01,0-0.01,0.01c-1.01,0.88-2,1.82-2.96,2.8
			c-0.48,0.49-0.95,1-1.41,1.5c-0.45,0.5-0.91,1.02-1.34,1.54c-0.01,0-0.01,0,0,0.01c-0.59,0.69-1.15,1.37-1.7,2.09
			c-0.27,0.36-0.55,0.73-0.8,1.09c-0.54,0.72-1.04,1.44-1.52,2.19c-5.82,8.92-8.75,19.35-8.75,31.12c0,6.84,1,13.24,2.99,19.16
			c0.14,0.42,0.29,0.84,0.44,1.26c0.6,1.67,1.3,3.31,2.06,4.91c0.4,0.79,0.8,1.57,1.22,2.34c0.17,0.29,0.34,0.59,0.5,0.89
			c0.39,0.72,1.09,1.86,1.54,2.53c0.49,0.73,1,1.46,1.53,2.19c1.56,2.17,3.32,4.25,5.25,6.23v0.01c4.1,4.21,8.64,7.59,13.58,10.12
			c1.65,0.84,3.35,1.6,5.09,2.27c0.81,0.31,1.65,0.6,2.48,0.87c0.56,0.19,1.14,0.35,1.72,0.53c0.73,0.22,1.47,0.41,2.21,0.57
			c0.84,0.19,1.69,0.38,2.53,0.54c0.44,0.08,0.89,0.15,1.33,0.24c3.13,0.52,6.38,0.77,9.74,0.77c0.71,0,1.44-0.01,2.13-0.03
			c0.23-0.01,0.48-0.01,0.73-0.04c0.15,0,0.3,0,0.47-0.01c0.38-0.01,0.77-0.04,1.14-0.07c0.41-0.03,0.81-0.06,1.22-0.1
			c0.45-0.04,0.9-0.07,1.43-0.15c0.44-0.03,0.88-0.08,1.36-0.15c0.45-0.06,0.91-0.13,1.32-0.2c0.81-0.13,1.59-0.28,2.35-0.42
			c0.55-0.14,1.1-0.27,1.63-0.38l0.42-0.1c0.49-0.13,0.99-0.27,1.48-0.41c0.97-0.27,1.92-0.56,2.88-0.9
			c1.52-0.52,2.89-1.07,4.17-1.64l0.54-0.24c0.27-0.13,0.55-0.25,0.85-0.42c0.96-0.45,1.92-0.95,2.84-1.5l1.03-0.6l1.92,2.52
			l2.32,3.09c0.83,1.11,2.12,1.75,3.48,1.75h14.07c2.51,0,3.93-2.94,2.4-4.98L992.34,141.4z M932.3,136.99h-0.01
			c-0.3-0.2-0.6-0.39-0.89-0.59c-0.88-0.62-1.73-1.26-2.55-1.96c-0.01-0.01-0.01,0-0.01,0c-1.1-0.95-2.14-1.96-3.14-3.07
			c-2.25-2.48-4.1-5.19-5.57-8.11c-0.58-1.16-1.11-2.37-1.56-3.6c-0.23-0.62-0.44-1.25-0.65-1.88c-1.23-3.94-1.85-8.19-1.85-12.75
			c0-10.42,3.24-19.28,9.63-26.34c0.8-0.88,1.63-1.71,2.5-2.5c0.86-0.77,1.76-1.49,2.67-2.15c0,0,0-0.01,0.01-0.01
			c0.28-0.2,0.56-0.4,0.85-0.59c0.57-0.39,1.15-0.77,1.76-1.11c2.04-1.16,4.23-2.1,6.52-2.8c0.84-0.25,1.69-0.48,2.54-0.66
			c2.59-0.56,5.32-0.84,8.18-0.84c10.26,0,18.73,3.59,25.16,10.67c1.74,1.92,3.25,3.98,4.54,6.17c0.19,0.32,0.37,0.63,0.54,0.95
			c0,0,0,0,0,0.01c0.55,1.02,1.04,2.06,1.5,3.13c0.73,1.71,1.32,3.51,1.78,5.36c0.32,1.26,0.58,2.55,0.78,3.87
			c0.33,2.19,0.49,4.47,0.49,6.83c0,1.3-0.05,2.58-0.15,3.83c-0.05,0.63-0.11,1.25-0.19,1.87c0,0,0,0.01,0,0.03
			c-0.08,0.6-0.16,1.21-0.26,1.8c-0.01,0.1-0.04,0.21-0.07,0.32c-0.16,1.01-0.38,2-0.63,2.97c-1,3.93-2.59,7.56-4.74,10.88
			c-0.53,0.82-0.77,1.79-0.62,2.76l1.34,8.59c0.18,1.16-0.92,2.09-2,1.69l-6.68-2.49c-1.05-0.39-2.21-0.26-3.18,0.3
			c-0.01,0-0.01,0.01-0.02,0.01c-0.3,0.18-0.6,0.36-0.92,0.52c-0.34,0.2-0.7,0.38-1.06,0.55c-0.51,0.25-1.02,0.49-1.54,0.71
			c-3.13,1.33-6.52,2.17-10.17,2.51c-0.01,0-0.03,0-0.03,0c-1.22,0.11-2.47,0.17-3.75,0.17c-1.71,0-3.39-0.1-5.01-0.29
			c-0.1-0.01-0.19-0.03-0.3-0.04c-1.18-0.15-2.35-0.36-3.47-0.63C938.53,140.24,935.27,138.87,932.3,136.99z"/>
		<g>
			<path class="st1" d="M286.07,140.53c-10.32,0-18.77-3.27-25.12-9.72c-6.37-6.46-9.63-15.26-9.69-26.15
				c0-10.18,3.21-18.66,9.55-25.23c6.34-6.56,14.79-9.91,25.11-9.97c7.27,0,14,1.65,20.12,4.92c3.6,1.92,8.01,1.12,10.75-1.95v0
				c4.51-5.05,3.12-13.15-2.84-16.26c-8.38-4.36-17.76-6.56-28.03-6.56c-15.26,0-28.22,5.36-38.54,15.92
				c-10.3,10.56-15.56,23.77-15.61,39.28c0,15.85,5.24,29.22,15.58,39.73c10.33,10.5,23.31,15.86,38.56,15.92
				c10.32,0,19.72-2.21,28.09-6.58c5.94-3.1,7.32-11.17,2.82-16.21l0,0c-2.75-3.07-7.17-3.85-10.78-1.92
				C300.11,138.93,293.42,140.53,286.07,140.53z"/>
			<path class="st1" d="M385.4,49.62c-15.35,0-28.37,5.34-38.69,15.87c-10.3,10.55-15.53,23.85-15.53,39.55
				c0,15.65,5.23,28.94,15.53,39.5c10.32,10.56,23.34,15.92,38.69,15.92c15.36,0,28.38-5.34,38.69-15.89
				c10.3-10.52,15.53-23.83,15.53-39.53c0-15.71-5.23-29-15.53-39.55C413.79,54.97,400.77,49.62,385.4,49.62z M410.51,131.38
				c-6.42,7.08-14.84,10.67-25.04,10.67c-10.28,0-18.75-3.59-25.16-10.67c-6.39-7.07-9.63-15.93-9.63-26.34
				c0-10.42,3.24-19.28,9.63-26.34c6.41-7.08,14.83-10.67,25.01-10.67c10.29,0,18.77,3.59,25.19,10.67
				c6.38,7.05,9.62,15.92,9.62,26.34C420.12,115.45,416.89,124.31,410.51,131.38z"/>
			<path class="st1" d="M508.99,105.53l-35.44-51.9c-0.53-0.77-1.12-1.51-1.85-2.09c-1.56-1.24-3.49-1.93-5.5-1.93h-2.45
				c-4.96,0-8.97,4.11-8.97,9.17v92.5c0,5.07,4.02,9.17,8.97,9.17h1.55c4.96,0,8.97-4.11,8.97-9.17V84.4l26.68,38.88
				c3.56,4.05,12.52,4.05,16.08,0l26.68-38.88l0.07,66.9c0.01,5.06,4.02,9.16,8.97,9.16h1.56c4.96,0,8.97-4.11,8.97-9.17v-92.5
				c0-5.07-4.02-9.17-8.97-9.17h-2.5c-2.01,0-3.94,0.69-5.5,1.92c-0.73,0.58-1.32,1.31-1.85,2.08L508.99,105.53z"/>
			<path class="st1" d="M627.14,49.62h-38.12c-4.96,0-8.97,4.11-8.97,9.17v92.5c0,5.07,4.02,9.17,8.97,9.17h1.55
				c4.96,0,8.97-4.11,8.97-9.17V117.8h27.68c25.22,0,38.24-12.76,37.47-36.85C664.01,59.89,652.41,49.62,627.14,49.62z
				 M632.04,99.39h-32.5V68.1h32.77c11.5,0,14.88,8.72,14.88,15.64C647.19,91.46,644.23,98.84,632.04,99.39z"/>
			<path class="st1" d="M688.67,160.46h1.47c4.96,0,8.97-4.11,8.97-9.17V58.71c0-5.07-4.02-9.17-8.97-9.17h-1.47
				c-4.96,0-8.97,4.11-8.97,9.17v92.58C679.7,156.36,683.72,160.46,688.67,160.46z"/>
			<path class="st1" d="M726.38,49.62h-1.54c-4.96,0-8.97,4.11-8.97,9.17v92.5c0,5.07,4.02,9.17,8.97,9.17h60.84
				c4.96,0,8.97-4.11,8.97-9.17v-0.06c0-5.07-4.02-9.17-8.97-9.17h-50.33V58.79C735.36,53.73,731.34,49.62,726.38,49.62z"/>
			<g>
				<path class="st1" d="M818.64,68.04h60.99c4.96,0,8.97-4.11,8.97-9.17V58.8c0-5.07-4.02-9.18-8.98-9.17l-60.99,0.05
					c-4.95,0-8.96,4.11-8.96,9.17v0.01C809.67,63.93,813.69,68.04,818.64,68.04z"/>
				<path class="st1" d="M864.74,95.07h-46.09c-4.96,0-8.97,4.11-8.97,9.17v0c0,5.07,4.02,9.17,8.97,9.17h46.09
					c4.96,0,8.97-4.11,8.97-9.17v0C873.71,99.18,869.69,95.07,864.74,95.07z"/>
				<path class="st1" d="M818.64,160.46h60.84c4.96,0,8.97-4.11,8.97-9.17v-0.07c0-5.07-4.02-9.17-8.97-9.17h-60.84
					c-4.96,0-8.97,4.11-8.97,9.17v0.07C809.67,156.36,813.69,160.46,818.64,160.46z"/>
			</g>
		</g>
	</g>
	<g>
		<defs>
			<path id="SVGID_1_" d="M99.49,169.65c2.86,2.86,4.46,6.73,4.46,10.77v19.22c0,2.34-0.9,4.31-2.29,5.74
				c-3,3.08-8.28,3.68-11.84,0.11l-73.74-73.74c-14.78-14.78-14.78-38.73,0-53.52L89.81,4.51c5.22-5.22,14.13-1.52,14.13,5.85v19.03
				c0,4.04-1.6,7.91-4.46,10.77L49.93,89.71c-8.39,8.39-8.39,21.99,0,30.38L99.49,169.65z M191.23,94.19l-56.8-56.8
				c-5.95-5.95-15.58-5.95-21.53,0l-56.8,56.8c-5.95,5.95-5.95,15.58,0,21.53l56.8,56.8c5.95,5.95,15.58,5.95,21.53,0l56.8-56.8
				C197.17,109.77,197.17,100.13,191.23,94.19z"/>
		</defs>
		<clipPath id="SVGID_2_">
			<use xlink:href="#SVGID_1_"  style="overflow:visible;"/>
		</clipPath>
		<g class="st2">
			<g>
				<path class="st3" d="M99.49,169.65l-49.56-49.56c-8.39-8.39-8.39-21.99,0-30.38l49.56-49.56c2.86-2.86,4.46-6.73,4.46-10.77
					V10.36c0-7.37-8.92-11.07-14.13-5.85L16.08,78.24c-14.78,14.78-14.78,38.74,0,53.52l73.74,73.74c3.56,3.56,8.85,2.97,11.84-0.11
					c1.39-1.43,2.29-3.4,2.29-5.74v-19.22C103.95,176.38,102.35,172.51,99.49,169.65z"/>
			</g>
			<g>
				<linearGradient id="SVGID_3_" gradientUnits="userSpaceOnUse" x1="195.6858" y1="104.9571" x2="51.6287" y2="104.9571">
					<stop  offset="0" style="stop-color:#00D0FE"/>
					<stop  offset="1" style="stop-color:#0075FF"/>
				</linearGradient>
				<path class="st4" d="M195.69,104.95c0,0.48-0.02,0.97-0.08,1.46c-0.02,0.25-0.06,0.49-0.09,0.73c-0.02,0.18-0.05,0.37-0.09,0.55
					c-0.02,0.17-0.06,0.33-0.1,0.5c-0.17,0.85-0.42,1.69-0.76,2.49c-0.09,0.23-0.2,0.46-0.3,0.68c-0.21,0.46-0.44,0.89-0.69,1.33
					c-0.01,0.03-0.03,0.07-0.06,0.1c-0.16,0.26-0.32,0.52-0.49,0.77c-0.53,0.77-1.13,1.48-1.8,2.16l-11.1,11.1l-45.71,45.71
					c-5.95,5.95-15.58,5.95-21.53,0l-56.8-56.8c-5.95-5.95-5.95-15.58,0-21.53l56.8-56.8c5.95-5.94,15.58-5.94,21.53,0l45.71,45.72
					l1.96,1.95l9.14,9.14c0.89,0.89,1.66,1.88,2.29,2.92c0.02,0.03,0.05,0.07,0.06,0.1c0.25,0.44,0.48,0.87,0.69,1.33
					c0.1,0.22,0.21,0.45,0.3,0.68c0.33,0.8,0.58,1.64,0.76,2.49c0.05,0.17,0.08,0.33,0.1,0.5c0.05,0.18,0.07,0.37,0.09,0.55
					c0.03,0.24,0.07,0.48,0.09,0.73C195.66,103.98,195.69,104.47,195.69,104.95z"/>
				<g>
					<path class="st5" d="M141.29,67.17l-12.78-12.78c-2.68-2.68-7.02-2.68-9.7,0L73.1,100.1c-2.68,2.68-2.68,7.02,0,9.7
						l12.78,12.78c2.68,2.68,7.02,2.68,9.7,0l45.71-45.71C143.97,74.19,143.97,69.85,141.29,67.17z"/>
					<path class="st5" d="M134.3,99.81c-1.52-1.52-3.98-1.52-5.5,0l-30.1,30.1c-1.52,1.52-1.52,3.98,0,5.5l5.74,5.74
						c1.52,1.52,3.98,1.52,5.5,0l30.1-30.1c1.52-1.52,1.52-3.98,0-5.5L134.3,99.81z"/>
				</g>
			</g>
			<g>
				<linearGradient id="SVGID_4_" gradientUnits="userSpaceOnUse" x1="180.129" y1="104.9583" x2="195.6858" y2="104.9583">
					<stop  offset="0" style="stop-color:#7ED0FE"/>
					<stop  offset="0.094" style="stop-color:#8CD5FE"/>
					<stop  offset="0.5035" style="stop-color:#C6EAFF"/>
					<stop  offset="0.7" style="stop-color:#DDF2FF"/>
				</linearGradient>
				<path class="st6" d="M195.69,104.95c0,0.48-0.02,0.97-0.08,1.46c-0.02,0.25-0.06,0.49-0.09,0.73c-0.02,0.18-0.05,0.37-0.09,0.55
					c-0.02,0.17-0.06,0.33-0.1,0.5c-0.17,0.85-0.42,1.69-0.76,2.49c-0.09,0.23-0.2,0.46-0.3,0.68c-0.21,0.46-0.44,0.89-0.69,1.33
					c-0.01,0.03-0.03,0.07-0.06,0.1c-0.16,0.26-0.32,0.52-0.49,0.77c-0.53,0.77-1.13,1.48-1.8,2.16l-11.1,11.1V83.1l1.96,1.95
					l9.14,9.14c0.89,0.89,1.66,1.88,2.29,2.92c0.02,0.03,0.05,0.07,0.06,0.1c0.25,0.44,0.48,0.87,0.69,1.33
					c0.1,0.22,0.21,0.45,0.3,0.68c0.33,0.8,0.58,1.64,0.76,2.49c0.05,0.17,0.08,0.33,0.1,0.5c0.05,0.18,0.07,0.37,0.09,0.55
					c0.03,0.24,0.07,0.48,0.09,0.73C195.66,103.98,195.69,104.47,195.69,104.95z"/>
				
					<linearGradient id="SVGID_5_" gradientUnits="userSpaceOnUse" x1="161.587" y1="106.4205" x2="177.1391" y2="106.4205" gradientTransform="matrix(1 0 0 1 2.9915 -1.4676)">
					<stop  offset="0" style="stop-color:#86D0FE"/>
					<stop  offset="1" style="stop-color:#2EACFE"/>
				</linearGradient>
				<path class="st7" d="M169.04,115.72l11.09,11.09V83.1l-11.09,11.09C163.09,100.14,163.09,109.77,169.04,115.72z"/>
				<path class="st8" d="M180.13,83.1l-9.72,9.82l-1.22,1.23c-0.39,0.42-0.77,0.85-1.16,1.27c-0.33,0.47-0.7,0.91-1,1.4
					c-0.28,0.5-0.62,0.97-0.84,1.5c-1,2.06-1.53,4.35-1.55,6.64c0.02,2.29,0.54,4.58,1.55,6.64c0.22,0.53,0.56,1,0.84,1.5
					c0.3,0.49,0.67,0.93,1,1.4c0.38,0.43,0.76,0.85,1.16,1.27l1.22,1.23l9.72,9.82l-9.82-9.72l-1.23-1.22
					c-0.4-0.42-0.78-0.85-1.17-1.28c-0.33-0.47-0.7-0.92-1.01-1.41c-0.28-0.51-0.63-0.98-0.84-1.52c-1.01-2.08-1.55-4.39-1.56-6.71
					c0.02-2.32,0.55-4.62,1.56-6.71c0.22-0.54,0.57-1.01,0.84-1.52c0.3-0.49,0.68-0.94,1.01-1.41c0.39-0.43,0.77-0.87,1.17-1.28
					l1.23-1.22L180.13,83.1z"/>
				<linearGradient id="SVGID_6_" gradientUnits="userSpaceOnUse" x1="180.129" y1="104.9583" x2="195.6858" y2="104.9583">
					<stop  offset="0" style="stop-color:#0075FF"/>
					<stop  offset="1" style="stop-color:#0075FF"/>
				</linearGradient>
				<path class="st9" d="M195.69,104.95c0,0.48-0.02,0.97-0.08,1.46c-0.02,0.25-0.06,0.49-0.09,0.73c-0.02,0.18-0.05,0.37-0.09,0.55
					c-0.02,0.17-0.06,0.33-0.1,0.5c-0.17,0.85-0.42,1.69-0.76,2.49c-0.09,0.23-0.2,0.46-0.3,0.68c-0.03,0.1-0.08,0.19-0.13,0.3
					c-0.15,0.37-0.36,0.7-0.56,1.03c-0.01,0.03-0.03,0.07-0.06,0.1c-0.08,0.13-0.15,0.25-0.22,0.38c-0.08,0.14-0.17,0.26-0.28,0.39
					c-0.53,0.77-1.13,1.48-1.8,2.16l-11.1,11.1l9.68-9.82l1.21-1.23c0.39-0.42,0.77-0.85,1.15-1.27c0.33-0.47,0.7-0.92,1-1.4
					c0.28-0.5,0.62-0.97,0.84-1.5c1-2.06,1.51-4.34,1.54-6.64c-0.02-2.29-0.54-4.57-1.54-6.64c-0.22-0.53-0.56-1-0.84-1.5
					c-0.3-0.48-0.66-0.93-1-1.4c-0.38-0.42-0.76-0.85-1.15-1.27l-1.21-1.23l-9.68-9.81l1.96,1.95l9.14,9.14
					c0.89,0.89,1.66,1.88,2.29,2.92c0.02,0.03,0.05,0.07,0.06,0.1c0.21,0.33,0.41,0.66,0.56,1.03c0.05,0.1,0.09,0.2,0.13,0.3
					c0.1,0.22,0.21,0.45,0.3,0.68c0.33,0.8,0.58,1.64,0.76,2.49c0.05,0.17,0.08,0.33,0.1,0.5c0.05,0.18,0.07,0.37,0.09,0.55
					c0.03,0.24,0.07,0.48,0.09,0.73C195.66,103.98,195.69,104.47,195.69,104.95z"/>
			</g>
		</g>
	</g>
</g>
</svg>
