<svg width="144" height="62" viewBox="0 0 144 62" fill="none" xmlns="http://www.w3.org/2000/svg">
<g filter="url(#filter0_i_1339_314)">
<path d="M0 20.1777V10.244L18.936 0L37.8719 10.244V30.1113L14.2796 43.1492V32.9051L28.2487 25.4549V15.2109L18.936 10.244L0 20.1777Z" fill="#3796E9"/>
</g>
<g filter="url(#filter1_i_1339_314)">
<path d="M10 56.0899V20L0 25.7938V61.7938L10 56.0899Z" fill="#144062"/>
</g>
<g filter="url(#filter2_i_1339_314)">
<path d="M54.3746 8.71651C55.3283 8.71651 56.1776 8.94001 56.9226 9.38703C57.6676 9.81914 58.2488 10.4226 58.666 11.1974C59.0832 11.9574 59.2918 12.8141 59.2918 13.7678V14.0583C59.2918 15.0119 59.0832 15.8762 58.666 16.651C58.2488 17.4258 57.6676 18.0367 56.9226 18.4837C56.1776 18.9159 55.3283 19.1319 54.3746 19.1319H50.6868V24.0938H45.7473V8.71651H54.3746ZM50.6868 15.5335H52.7207C53.2422 15.5335 53.6296 15.3994 53.8829 15.1311C54.1511 14.8629 54.2852 14.4979 54.2852 14.036V13.8572C54.2852 13.3803 54.1511 13.0153 53.8829 12.762C53.6296 12.4938 53.2422 12.3597 52.7207 12.3597H50.6868V15.5335ZM61.8773 8.71651H66.8168V20.16H74.7066V24.0938H61.8773V8.71651ZM87.0886 24.0938L86.4405 21.9257H81.054L80.4058 24.0938H75.3546L80.9646 8.71651H86.7087L92.3187 24.0938H87.0886ZM82.0821 18.4837H85.4123L83.8031 13.0078H83.7137L82.0821 18.4837ZM101.826 24.0938H96.8863V18.1261L90.7845 8.71651H96.4616L99.4119 13.8348H99.5013L102.452 8.71651H107.838L101.826 18.1261V24.0938ZM109.678 8.71651H122.977V12.4044H114.617V14.5277H121.77V18.0591H114.617V20.4059H123.133V24.0938H109.678V8.71651ZM140.403 13.4325C140.403 14.3712 140.15 15.2205 139.643 15.9805C139.136 16.7404 138.399 17.2992 137.43 17.6568L140.85 24.0938H135.307L132.58 18.4837H130.747V24.0938H125.808V8.71651H135.218C136.32 8.71651 137.259 8.93256 138.034 9.36468C138.824 9.78189 139.412 10.3556 139.799 11.0857C140.202 11.8009 140.403 12.5832 140.403 13.4325ZM135.374 13.6336C135.374 13.2313 135.24 12.8961 134.972 12.6279C134.704 12.3597 134.376 12.2256 133.988 12.2256H130.747V15.0641H133.988C134.376 15.0641 134.704 14.93 134.972 14.6618C135.24 14.3787 135.374 14.036 135.374 13.6336Z" fill="url(#paint0_linear_1339_314)" fill-opacity="0.94"/>
<path d="M63.0059 28.4483C65.6582 28.4483 67.707 29.1263 69.1523 30.4822C70.5977 31.8381 71.3204 33.8125 71.3204 36.4051C71.3204 38.9978 70.5977 40.9721 69.1523 42.328C67.707 43.684 65.6582 44.362 63.0059 44.362C60.3536 44.362 58.3048 43.6914 56.8595 42.3504C55.429 40.9945 54.7138 39.0127 54.7138 36.4051C54.7138 33.7976 55.429 31.8232 56.8595 30.4822C58.3048 29.1263 60.3536 28.4483 63.0059 28.4483ZM63.0059 32.1362C61.948 32.1362 61.1434 32.4565 60.592 33.0972C60.0407 33.738 59.7651 34.6022 59.7651 35.6899V37.1203C59.7651 38.2081 60.0407 39.0723 60.592 39.713C61.1434 40.3537 61.948 40.6741 63.0059 40.6741C64.0638 40.6741 64.8685 40.3537 65.4198 39.713C65.986 39.0723 66.2691 38.2081 66.2691 37.1203V35.6899C66.2691 34.6022 65.986 33.738 65.4198 33.0972C64.8685 32.4565 64.0638 32.1362 63.0059 32.1362ZM88.5752 33.4325C88.5752 34.3712 88.3219 35.2205 87.8153 35.9805C87.3087 36.7404 86.5711 37.2992 85.6026 37.6568L89.0222 44.0938H83.4793L80.7525 38.4837H78.9197V44.0938H73.9803V28.7165H83.3899C84.4925 28.7165 85.4312 28.9326 86.2061 29.3647C86.9958 29.7819 87.5843 30.3556 87.9718 31.0857C88.3741 31.8009 88.5752 32.5832 88.5752 33.4325ZM83.5463 33.6336C83.5463 33.2313 83.4122 32.8961 83.144 32.6279C82.8758 32.3597 82.548 32.2256 82.1606 32.2256H78.9197V35.0641H82.1606C82.548 35.0641 82.8758 34.93 83.144 34.6618C83.4122 34.3787 83.5463 34.036 83.5463 33.6336ZM101.613 28.7165C102.388 28.7165 103.095 28.8804 103.736 29.2082C104.392 29.5211 104.906 29.9681 105.278 30.5493C105.666 31.1304 105.859 31.7785 105.859 32.4938C105.859 34.3861 105.003 35.5782 103.289 36.0699V36.1593C105.241 36.6063 106.217 37.8877 106.217 40.0036C106.217 40.8082 106.016 41.5234 105.614 42.1492C105.226 42.7602 104.69 43.237 104.004 43.5797C103.319 43.9224 102.566 44.0938 101.747 44.0938H91.3762V28.7165H101.613ZM96.3157 34.7065H99.713C100.041 34.7065 100.309 34.5947 100.518 34.3712C100.741 34.1328 100.853 33.8423 100.853 33.4995V33.276C100.853 32.9482 100.741 32.6726 100.518 32.4491C100.294 32.2107 100.026 32.0915 99.713 32.0915H96.3157V34.7065ZM96.3157 40.5176H100.071C100.398 40.5176 100.667 40.4059 100.875 40.1824C101.099 39.944 101.21 39.6534 101.21 39.3107V39.0872C101.21 38.7445 101.099 38.4614 100.875 38.2379C100.667 37.9995 100.398 37.8803 100.071 37.8803H96.3157V40.5176ZM108.996 44.0938V28.7165H113.935V44.0938H108.996ZM126.31 32.6502V44.0938H121.371V32.6502H116.319V28.7165H131.339V32.6502H126.31Z" fill="url(#paint1_linear_1339_314)"/>
</g>
<defs>
<filter id="filter0_i_1339_314" x="0" y="0" width="37.8711" height="46.1797" filterUnits="userSpaceOnUse" color-interpolation-filters="sRGB">
<feFlood flood-opacity="0" result="BackgroundImageFix"/>
<feBlend mode="normal" in="SourceGraphic" in2="BackgroundImageFix" result="shape"/>
<feColorMatrix in="SourceAlpha" type="matrix" values="0 0 0 0 0 0 0 0 0 0 0 0 0 0 0 0 0 0 127 0" result="hardAlpha"/>
<feOffset dy="3.03121"/>
<feGaussianBlur stdDeviation="1.51561"/>
<feComposite in2="hardAlpha" operator="arithmetic" k2="-1" k3="1"/>
<feColorMatrix type="matrix" values="0 0 0 0 0 0 0 0 0 0 0 0 0 0 0 0 0 0 0.25 0"/>
<feBlend mode="normal" in2="shape" result="effect1_innerShadow_1339_314"/>
</filter>
<filter id="filter1_i_1339_314" x="0" y="20" width="10" height="44.8242" filterUnits="userSpaceOnUse" color-interpolation-filters="sRGB">
<feFlood flood-opacity="0" result="BackgroundImageFix"/>
<feBlend mode="normal" in="SourceGraphic" in2="BackgroundImageFix" result="shape"/>
<feColorMatrix in="SourceAlpha" type="matrix" values="0 0 0 0 0 0 0 0 0 0 0 0 0 0 0 0 0 0 127 0" result="hardAlpha"/>
<feOffset dy="3.03121"/>
<feGaussianBlur stdDeviation="1.51561"/>
<feComposite in2="hardAlpha" operator="arithmetic" k2="-1" k3="1"/>
<feColorMatrix type="matrix" values="0 0 0 0 0 0 0 0 0 0 0 0 0 0 0 0 0 0 0.25 0"/>
<feBlend mode="normal" in2="shape" result="effect1_innerShadow_1339_314"/>
</filter>
<filter id="filter2_i_1339_314" x="45.748" y="8.71484" width="95.1016" height="37.164" filterUnits="userSpaceOnUse" color-interpolation-filters="sRGB">
<feFlood flood-opacity="0" result="BackgroundImageFix"/>
<feBlend mode="normal" in="SourceGraphic" in2="BackgroundImageFix" result="shape"/>
<feColorMatrix in="SourceAlpha" type="matrix" values="0 0 0 0 0 0 0 0 0 0 0 0 0 0 0 0 0 0 127 0" result="hardAlpha"/>
<feOffset dy="1.51561"/>
<feGaussianBlur stdDeviation="1.51561"/>
<feComposite in2="hardAlpha" operator="arithmetic" k2="-1" k3="1"/>
<feColorMatrix type="matrix" values="0 0 0 0 0 0 0 0 0 0 0 0 0 0 0 0 0 0 0.36 0"/>
<feBlend mode="normal" in2="shape" result="effect1_innerShadow_1339_314"/>
</filter>
<linearGradient id="paint0_linear_1339_314" x1="92.8217" y1="5.6762" x2="92.8217" y2="43.9527" gradientUnits="userSpaceOnUse">
<stop stop-color="#0B1836" stop-opacity="0.437938"/>
<stop stop-color="#154369"/>
<stop stop-color="#0B1836" stop-opacity="0.437938"/>
<stop stop-color="#162F68"/>
<stop offset="0.0001" stop-color="#363A43" stop-opacity="0.170305"/>
<stop offset="0.0002" stop-color="#03060E" stop-opacity="0"/>
<stop offset="0.0003" stop-color="#0B1836" stop-opacity="0.437938"/>
<stop offset="0.0004" stop-color="#162F68"/>
<stop offset="0.0239582" stop-color="#0B1836" stop-opacity="0.437938"/>
<stop offset="0.0239582" stop-color="#0B1836" stop-opacity="0.437938"/>
<stop offset="0.0239582" stop-color="#0B1836" stop-opacity="0.437938"/>
<stop offset="0.0239582" stop-color="#0B1836" stop-opacity="0.437938"/>
<stop offset="0.0240582" stop-color="#1F3D81" stop-opacity="0.437938"/>
<stop offset="0.0604165" stop-color="#0B1836" stop-opacity="0.437938"/>
<stop offset="0.0605165" stop-color="#0C1A39" stop-opacity="0.475816"/>
<stop offset="0.0727046" stop-color="#162F68" stop-opacity="0.835471"/>
<stop offset="0.129553" stop-color="#0F5697"/>
<stop offset="0.223958" stop-color="#154265"/>
<stop offset="0.296875" stop-color="#042E4C"/>
<stop offset="0.9999" stop-color="#032D4B"/>
</linearGradient>
<linearGradient id="paint1_linear_1339_314" x1="93.2006" y1="57.9721" x2="93.2006" y2="15.1562" gradientUnits="userSpaceOnUse">
<stop offset="0.469835" stop-color="#3796E9"/>
<stop offset="0.940625" stop-color="#4696DE" stop-opacity="0.517708"/>
<stop offset="1" stop-color="#4696DE" stop-opacity="0"/>
</linearGradient>
</defs>
</svg>
